# xmcd CD database file
#
# Track frame offsets:
#       150
#       13312
#       28000
#       38057
#       62937
#       74102
#       88107
#       100815
#       119177
#       132270
#       147537
#       166882
#       185332
#
# Disc length: 2661 seconds
#
# Revision: 0
# Processed by: cddbd v1.4PL0 Copyright (c) Steve Scherf et al.
# Submitted via: jack 2.99.7
#
DISCID=c80a630d
DTITLE=Lynn Conover - Strange Bird
DYEAR=1900
DGENRE=
TTITLE0=My Baby
TTITLE1=When We First Met
TTITLE2=Damn Teenager
TTITLE3=Song for Miss M.
TTITLE4=Going Back
TTITLE5=He Says
TTITLE6=Good News
TTITLE7=Glory
TTITLE8=Roll That Rock
TTITLE9=Hot Burrito #2
TTITLE10=Ponies in Your Head
TTITLE11=Strange Bird
TTITLE12=Railroad Bum
EXTD=
EXTT0=
EXTT1=
EXTT2=
EXTT3=
EXTT4=
EXTT5=
EXTT6=
EXTT7=
EXTT8=
EXTT9=
EXTT10=
EXTT11=
EXTT12=
PLAYORDER=
